<?xml version="1.0" encoding="utf-8"?>
<!-- Generator: Adobe Illustrator 19.0.0, SVG Export Plug-In . SVG Version: 6.00 Build 0)  -->
<svg version="1.1" id="Layer_1" xmlns="http://www.w3.org/2000/svg" xmlns:xlink="http://www.w3.org/1999/xlink" x="0px" y="0px"
   viewBox="0 0 408.7 136.4" style="enable-background:new 0 0 408.7 136.4;" xml:space="preserve">
<style type="text/css">
  .st0{fill:#939598;stroke:#000000;stroke-miterlimit:10;}
  .st1{fill:#F7941E;stroke:#000000;stroke-miterlimit:10;}
  .st2{fill:none;stroke:#000000;stroke-miterlimit:10;}
  .st3{fill:#FFFFFF;}
  .st4{font-family:'MyriadPro-Regular';}
  .st5{font-size:12px;}
</style>
<g id="XMLID_44_">
  <path id="XMLID_1_" class="st0" d="M185.5,24.4H56c-6.1,0-11-4.9-11-11v0c0-6.1,4.9-11,11-11h129.5c6.1,0,11,4.9,11,11v0
    C196.5,19.5,191.6,24.4,185.5,24.4z"/>
  <path id="XMLID_2_" class="st1" d="M166.3,2.4H56c-6.1,0-11,4.9-11,11v0c0,6.1,4.9,11,11,11h110.3V2.4z"/>
  <path id="XMLID_20_" class="st2" d="M196.5,18"/>
  <path id="XMLID_19_" class="st2" d="M45,18"/>
  <path id="XMLID_32_" class="st2" d="M196.5,13.7"/>
  <path id="XMLID_5_" class="st2" d="M196.5,0.4"/>
  <path id="XMLID_31_" class="st2" d="M45,13.6"/>
  <path id="XMLID_30_" class="st2" d="M45,0.2"/>
  <line id="XMLID_6_" class="st2" x1="75.4" y1="0.1" x2="75.4" y2="13.4"/>
  <line id="XMLID_7_" class="st2" x1="105.6" y1="0.4" x2="105.6" y2="13.7"/>
  <line id="XMLID_8_" class="st2" x1="136" y1="0.4" x2="136" y2="13.7"/>
  <line id="XMLID_9_" class="st2" x1="166.3" y1="0.4" x2="166.3" y2="13.7"/>
</g>
<g id="XMLID_46_">
  <path id="XMLID_58_" class="st0" d="M185.5,61.1H56c-6.1,0-11-4.9-11-11v0c0-6.1,4.9-11,11-11h129.5c6.1,0,11,4.9,11,11v0
    C196.5,56.1,191.6,61.1,185.5,61.1z"/>
  <path id="XMLID_57_" class="st1" d="M166.3,39H56c-6.1,0-11,4.9-11,11v0c0,6.1,4.9,11,11,11h110.3V39z"/>
  <path id="XMLID_56_" class="st2" d="M196.5,54.6"/>
  <path id="XMLID_55_" class="st2" d="M45,54.6"/>
  <path id="XMLID_54_" class="st2" d="M196.5,50.3"/>
  <path id="XMLID_53_" class="st2" d="M196.5,37"/>
  <path id="XMLID_52_" class="st2" d="M45,50.2"/>
  <path id="XMLID_51_" class="st2" d="M45,36.8"/>
  <line id="XMLID_50_" class="st2" x1="75.4" y1="36.7" x2="75.4" y2="50.1"/>
  <line id="XMLID_49_" class="st2" x1="105.6" y1="37" x2="105.6" y2="50.3"/>
  <line id="XMLID_48_" class="st2" x1="136" y1="37" x2="136" y2="50.3"/>
  <line id="XMLID_47_" class="st2" x1="166.3" y1="37" x2="166.3" y2="50.3"/>
</g>
<g id="XMLID_59_">
  <path id="XMLID_71_" class="st0" d="M185.5,98H56c-6.1,0-11-4.9-11-11v0c0-6.1,4.9-11,11-11h129.5c6.1,0,11,4.9,11,11v0
    C196.5,93.1,191.6,98,185.5,98z"/>
  <path id="XMLID_70_" class="st1" d="M136,76H56c-6.1,0-11,4.9-11,11v0c0,6.1,4.9,11,11,11h80V76z"/>
  <path id="XMLID_69_" class="st2" d="M196.5,91.6"/>
  <path id="XMLID_68_" class="st2" d="M45,91.6"/>
  <path id="XMLID_67_" class="st2" d="M196.5,87.3"/>
  <path id="XMLID_66_" class="st2" d="M196.5,73.9"/>
  <path id="XMLID_65_" class="st2" d="M45,87.2"/>
  <path id="XMLID_64_" class="st2" d="M45,73.8"/>
  <line id="XMLID_63_" class="st2" x1="75.4" y1="73.7" x2="75.4" y2="87"/>
  <line id="XMLID_62_" class="st2" x1="105.6" y1="73.9" x2="105.6" y2="87.3"/>
  <line id="XMLID_61_" class="st2" x1="136" y1="73.9" x2="136" y2="87.3"/>
  <line id="XMLID_60_" class="st2" x1="166.3" y1="73.9" x2="166.3" y2="87.3"/>
</g>
<g id="XMLID_85_">
  <path id="XMLID_97_" class="st0" d="M185.5,135.9H56c-6.1,0-11-4.9-11-11v0c0-6.1,4.9-11,11-11h129.5c6.1,0,11,4.9,11,11v0
    C196.5,131,191.6,135.9,185.5,135.9z"/>
  <path id="XMLID_96_" class="st1" d="M105.6,113.9H56c-6.1,0-11,4.9-11,11v0c0,6.1,4.9,11,11,11h49.6V113.9z"/>
  <path id="XMLID_95_" class="st2" d="M196.5,129.4"/>
  <path id="XMLID_94_" class="st2" d="M45,129.4"/>
  <path id="XMLID_93_" class="st2" d="M196.5,125.1"/>
  <path id="XMLID_92_" class="st2" d="M196.5,111.8"/>
  <path id="XMLID_91_" class="st2" d="M45,125"/>
  <path id="XMLID_90_" class="st2" d="M45,111.7"/>
  <line id="XMLID_89_" class="st2" x1="75.4" y1="111.6" x2="75.4" y2="124.9"/>
  <line id="XMLID_88_" class="st2" x1="105.6" y1="111.8" x2="105.6" y2="125.1"/>
  <line id="XMLID_87_" class="st2" x1="136" y1="111.8" x2="136" y2="125.1"/>
  <line id="XMLID_86_" class="st2" x1="166.3" y1="111.8" x2="166.3" y2="125.1"/>
</g>
<g id="XMLID_98_">
  <path id="XMLID_110_" class="st0" d="M397.2,24.3H267.7c-6.1,0-11-4.9-11-11v0c0-6.1,4.9-11,11-11h129.5c6.1,0,11,4.9,11,11v0
    C408.2,19.4,403.2,24.3,397.2,24.3z"/>
  <path id="XMLID_109_" class="st1" d="M317.3,2.3h-49.6c-6.1,0-11,4.9-11,11v0c0,6.1,4.9,11,11,11h49.6V2.3z"/>
  <path id="XMLID_108_" class="st2" d="M408.2,17.9"/>
  <path id="XMLID_107_" class="st2" d="M256.7,17.9"/>
  <path id="XMLID_106_" class="st2" d="M408.2,13.6"/>
  <path id="XMLID_105_" class="st2" d="M408.2,0.2"/>
  <path id="XMLID_104_" class="st2" d="M256.7,13.5"/>
  <path id="XMLID_103_" class="st2" d="M256.7,0.1"/>
  <line id="XMLID_102_" class="st2" x1="287.1" y1="0" x2="287.1" y2="13.3"/>
  <line id="XMLID_101_" class="st2" x1="317.3" y1="0.2" x2="317.3" y2="13.6"/>
  <line id="XMLID_100_" class="st2" x1="347.6" y1="0.2" x2="347.6" y2="13.6"/>
  <line id="XMLID_99_" class="st2" x1="378" y1="0.2" x2="378" y2="13.6"/>
</g>
<g id="XMLID_111_">
  <path id="XMLID_123_" class="st0" d="M397.2,61.3H267.7c-6.1,0-11-4.9-11-11v0c0-6.1,4.9-11,11-11h129.5c6.1,0,11,4.9,11,11v0
    C408.2,56.4,403.2,61.3,397.2,61.3z"/>
  <path id="XMLID_122_" class="st1" d="M317.3,39.3h-49.6c-6.1,0-11,4.9-11,11v0c0,6.1,4.9,11,11,11h49.6V39.3z"/>
  <path id="XMLID_121_" class="st2" d="M408.2,54.8"/>
  <path id="XMLID_120_" class="st2" d="M256.7,54.8"/>
  <path id="XMLID_119_" class="st2" d="M408.2,50.5"/>
  <path id="XMLID_118_" class="st2" d="M408.2,37.2"/>
  <path id="XMLID_117_" class="st2" d="M256.7,50.4"/>
  <path id="XMLID_116_" class="st2" d="M256.7,37.1"/>
  <line id="XMLID_115_" class="st2" x1="287.1" y1="37" x2="287.1" y2="50.3"/>
  <line id="XMLID_114_" class="st2" x1="317.3" y1="37.2" x2="317.3" y2="50.5"/>
  <line id="XMLID_113_" class="st2" x1="347.6" y1="37.2" x2="347.6" y2="50.5"/>
  <line id="XMLID_112_" class="st2" x1="378" y1="37.2" x2="378" y2="50.5"/>
</g>
<g id="XMLID_124_">
  <path id="XMLID_136_" class="st0" d="M397.2,100.1H267.7c-6.1,0-11-4.9-11-11v0c0-6.1,4.9-11,11-11h129.5c6.1,0,11,4.9,11,11v0
    C408.2,95.2,403.2,100.1,397.2,100.1z"/>
  <path id="XMLID_135_" class="st1" d="M287.1,78.1h-19.4c-6.1,0-11,4.9-11,11v0c0,6.1,4.9,11,11,11h19.4V78.1z"/>
  <path id="XMLID_134_" class="st2" d="M408.2,93.6"/>
  <path id="XMLID_133_" class="st2" d="M256.7,93.6"/>
  <path id="XMLID_132_" class="st2" d="M408.2,89.3"/>
  <path id="XMLID_131_" class="st2" d="M408.2,76"/>
  <path id="XMLID_130_" class="st2" d="M256.7,89.2"/>
  <path id="XMLID_129_" class="st2" d="M256.7,75.9"/>
  <line id="XMLID_128_" class="st2" x1="287.1" y1="75.8" x2="287.1" y2="89.1"/>
  <line id="XMLID_127_" class="st2" x1="317.3" y1="76" x2="317.3" y2="89.3"/>
  <line id="XMLID_126_" class="st2" x1="347.6" y1="76" x2="347.6" y2="89.3"/>
  <line id="XMLID_125_" class="st2" x1="378" y1="76" x2="378" y2="89.3"/>
</g>
<text id="XMLID_137_" transform="matrix(1 0 0 1 0 17.3801)" class="st3 st4 st5">Python</text>
<text id="XMLID_138_" transform="matrix(1 0 0 1 0 51.5644)" class="st3 st4 st5">C++</text>
<text id="XMLID_139_" transform="matrix(1 0 0 1 0 88.5468)" class="st3 st4 st5">C</text>
<text id="XMLID_140_" transform="matrix(1 0 0 1 0 126.1699)" class="st3 st4 st5">Java</text>
<text id="XMLID_141_" transform="matrix(1 0 0 1 211.6667 14.5979)" class="st3 st4 st5">HTML5</text>
<text id="XMLID_142_" transform="matrix(1 0 0 1 211.6667 51.6841)" class="st3 st4 st5">CSS3</text>
<text id="XMLID_143_" transform="matrix(1 0 0 1 211.6667 90.6096)" class="st3 st4 st5">SQL</text>
</svg>
